G75*
%MOIN*%
%OFA0B0*%
%FSLAX25Y25*%
%IPPOS*%
%LPD*%
%AMOC8*
5,1,8,0,0,1.08239X$1,22.5*
%
%ADD10C,0.00500*%
%ADD11C,0.00600*%
%ADD12C,0.00800*%
D10*
X0035237Y0020250D02*
X0201654Y0020250D01*
X0201811Y0020252D01*
X0201968Y0020258D01*
X0202125Y0020267D01*
X0202282Y0020281D01*
X0202438Y0020298D01*
X0202594Y0020319D01*
X0202749Y0020344D01*
X0202903Y0020373D01*
X0203057Y0020406D01*
X0203210Y0020442D01*
X0203362Y0020482D01*
X0203513Y0020526D01*
X0203663Y0020573D01*
X0203811Y0020624D01*
X0203959Y0020679D01*
X0204105Y0020737D01*
X0204249Y0020799D01*
X0204392Y0020865D01*
X0204533Y0020934D01*
X0204673Y0021006D01*
X0204811Y0021082D01*
X0204946Y0021161D01*
X0205080Y0021244D01*
X0205212Y0021329D01*
X0205341Y0021418D01*
X0205469Y0021510D01*
X0205594Y0021605D01*
X0205717Y0021704D01*
X0205837Y0021805D01*
X0205955Y0021909D01*
X0206070Y0022016D01*
X0206182Y0022126D01*
X0206292Y0022238D01*
X0206399Y0022353D01*
X0206503Y0022471D01*
X0206604Y0022591D01*
X0206703Y0022714D01*
X0206798Y0022839D01*
X0206890Y0022967D01*
X0206979Y0023096D01*
X0207064Y0023228D01*
X0207147Y0023362D01*
X0207226Y0023497D01*
X0207302Y0023635D01*
X0207374Y0023775D01*
X0207443Y0023916D01*
X0207509Y0024059D01*
X0207571Y0024203D01*
X0207629Y0024349D01*
X0207684Y0024497D01*
X0207735Y0024645D01*
X0207782Y0024795D01*
X0207826Y0024946D01*
X0207866Y0025098D01*
X0207902Y0025251D01*
X0207935Y0025405D01*
X0207964Y0025559D01*
X0207989Y0025714D01*
X0208010Y0025870D01*
X0208027Y0026026D01*
X0208041Y0026183D01*
X0208050Y0026340D01*
X0208056Y0026497D01*
X0208058Y0026654D01*
X0208058Y0113846D01*
X0208056Y0114003D01*
X0208050Y0114160D01*
X0208041Y0114317D01*
X0208027Y0114474D01*
X0208010Y0114630D01*
X0207989Y0114786D01*
X0207964Y0114941D01*
X0207935Y0115095D01*
X0207902Y0115249D01*
X0207866Y0115402D01*
X0207826Y0115554D01*
X0207782Y0115705D01*
X0207735Y0115855D01*
X0207684Y0116003D01*
X0207629Y0116151D01*
X0207571Y0116297D01*
X0207509Y0116441D01*
X0207443Y0116584D01*
X0207374Y0116725D01*
X0207302Y0116865D01*
X0207226Y0117003D01*
X0207147Y0117138D01*
X0207064Y0117272D01*
X0206979Y0117404D01*
X0206890Y0117533D01*
X0206798Y0117661D01*
X0206703Y0117786D01*
X0206604Y0117909D01*
X0206503Y0118029D01*
X0206399Y0118147D01*
X0206292Y0118262D01*
X0206182Y0118374D01*
X0206070Y0118484D01*
X0205955Y0118591D01*
X0205837Y0118695D01*
X0205717Y0118796D01*
X0205594Y0118895D01*
X0205469Y0118990D01*
X0205341Y0119082D01*
X0205212Y0119171D01*
X0205080Y0119256D01*
X0204946Y0119339D01*
X0204811Y0119418D01*
X0204673Y0119494D01*
X0204533Y0119566D01*
X0204392Y0119635D01*
X0204249Y0119701D01*
X0204105Y0119763D01*
X0203959Y0119821D01*
X0203811Y0119876D01*
X0203663Y0119927D01*
X0203513Y0119974D01*
X0203362Y0120018D01*
X0203210Y0120058D01*
X0203057Y0120094D01*
X0202903Y0120127D01*
X0202749Y0120156D01*
X0202594Y0120181D01*
X0202438Y0120202D01*
X0202282Y0120219D01*
X0202125Y0120233D01*
X0201968Y0120242D01*
X0201811Y0120248D01*
X0201654Y0120250D01*
X0035237Y0120250D01*
X0034841Y0120245D01*
X0034444Y0120231D01*
X0034049Y0120207D01*
X0033654Y0120173D01*
X0033260Y0120130D01*
X0032867Y0120078D01*
X0032475Y0120016D01*
X0032085Y0119944D01*
X0031697Y0119864D01*
X0031311Y0119773D01*
X0030928Y0119674D01*
X0030546Y0119565D01*
X0030168Y0119447D01*
X0029792Y0119320D01*
X0029420Y0119184D01*
X0029051Y0119039D01*
X0028686Y0118885D01*
X0028324Y0118722D01*
X0027967Y0118551D01*
X0027614Y0118371D01*
X0027265Y0118183D01*
X0026921Y0117986D01*
X0026582Y0117781D01*
X0026247Y0117567D01*
X0025918Y0117346D01*
X0025595Y0117117D01*
X0025277Y0116880D01*
X0024965Y0116636D01*
X0024659Y0116384D01*
X0024359Y0116125D01*
X0024066Y0115858D01*
X0023779Y0115585D01*
X0023498Y0115304D01*
X0023225Y0115017D01*
X0022958Y0114724D01*
X0022699Y0114424D01*
X0022447Y0114118D01*
X0022203Y0113806D01*
X0021966Y0113488D01*
X0021737Y0113165D01*
X0021516Y0112836D01*
X0021302Y0112501D01*
X0021097Y0112162D01*
X0020900Y0111818D01*
X0020712Y0111469D01*
X0020532Y0111116D01*
X0020361Y0110759D01*
X0020198Y0110397D01*
X0020044Y0110032D01*
X0019899Y0109663D01*
X0019763Y0109291D01*
X0019636Y0108915D01*
X0019518Y0108537D01*
X0019409Y0108155D01*
X0019310Y0107772D01*
X0019219Y0107386D01*
X0019139Y0106998D01*
X0019067Y0106608D01*
X0019005Y0106216D01*
X0018953Y0105823D01*
X0018910Y0105429D01*
X0018876Y0105034D01*
X0018852Y0104639D01*
X0018838Y0104242D01*
X0018833Y0103846D01*
X0018833Y0036654D01*
X0018838Y0036258D01*
X0018852Y0035861D01*
X0018876Y0035466D01*
X0018910Y0035071D01*
X0018953Y0034677D01*
X0019005Y0034284D01*
X0019067Y0033892D01*
X0019139Y0033502D01*
X0019219Y0033114D01*
X0019310Y0032728D01*
X0019409Y0032345D01*
X0019518Y0031963D01*
X0019636Y0031585D01*
X0019763Y0031209D01*
X0019899Y0030837D01*
X0020044Y0030468D01*
X0020198Y0030103D01*
X0020361Y0029741D01*
X0020532Y0029384D01*
X0020712Y0029031D01*
X0020900Y0028682D01*
X0021097Y0028338D01*
X0021302Y0027999D01*
X0021516Y0027664D01*
X0021737Y0027335D01*
X0021966Y0027012D01*
X0022203Y0026694D01*
X0022447Y0026382D01*
X0022699Y0026076D01*
X0022958Y0025776D01*
X0023225Y0025483D01*
X0023498Y0025196D01*
X0023779Y0024915D01*
X0024066Y0024642D01*
X0024359Y0024375D01*
X0024659Y0024116D01*
X0024965Y0023864D01*
X0025277Y0023620D01*
X0025595Y0023383D01*
X0025918Y0023154D01*
X0026247Y0022933D01*
X0026582Y0022719D01*
X0026921Y0022514D01*
X0027265Y0022317D01*
X0027614Y0022129D01*
X0027967Y0021949D01*
X0028324Y0021778D01*
X0028686Y0021615D01*
X0029051Y0021461D01*
X0029420Y0021316D01*
X0029792Y0021180D01*
X0030168Y0021053D01*
X0030546Y0020935D01*
X0030928Y0020826D01*
X0031311Y0020727D01*
X0031697Y0020636D01*
X0032085Y0020556D01*
X0032475Y0020484D01*
X0032867Y0020422D01*
X0033260Y0020370D01*
X0033654Y0020327D01*
X0034049Y0020293D01*
X0034444Y0020269D01*
X0034841Y0020255D01*
X0035237Y0020250D01*
D11*
X0117683Y0141052D02*
X0124083Y0141052D01*
X0124083Y0142830D01*
X0124082Y0142830D02*
X0124080Y0142904D01*
X0124074Y0142979D01*
X0124064Y0143052D01*
X0124051Y0143126D01*
X0124034Y0143198D01*
X0124012Y0143269D01*
X0123988Y0143340D01*
X0123959Y0143408D01*
X0123927Y0143476D01*
X0123891Y0143541D01*
X0123853Y0143604D01*
X0123810Y0143666D01*
X0123765Y0143725D01*
X0123717Y0143782D01*
X0123666Y0143836D01*
X0123612Y0143887D01*
X0123555Y0143935D01*
X0123496Y0143980D01*
X0123434Y0144023D01*
X0123371Y0144061D01*
X0123306Y0144097D01*
X0123238Y0144129D01*
X0123170Y0144158D01*
X0123099Y0144182D01*
X0123028Y0144204D01*
X0122956Y0144221D01*
X0122882Y0144234D01*
X0122809Y0144244D01*
X0122734Y0144250D01*
X0122660Y0144252D01*
X0122586Y0144250D01*
X0122511Y0144244D01*
X0122438Y0144234D01*
X0122364Y0144221D01*
X0122292Y0144204D01*
X0122221Y0144182D01*
X0122150Y0144158D01*
X0122082Y0144129D01*
X0122014Y0144097D01*
X0121949Y0144061D01*
X0121886Y0144023D01*
X0121824Y0143980D01*
X0121765Y0143935D01*
X0121708Y0143887D01*
X0121654Y0143836D01*
X0121603Y0143782D01*
X0121555Y0143725D01*
X0121510Y0143666D01*
X0121467Y0143604D01*
X0121429Y0143541D01*
X0121393Y0143476D01*
X0121361Y0143408D01*
X0121332Y0143340D01*
X0121308Y0143269D01*
X0121286Y0143198D01*
X0121269Y0143126D01*
X0121256Y0143052D01*
X0121246Y0142979D01*
X0121240Y0142904D01*
X0121238Y0142830D01*
X0121238Y0141052D01*
X0121238Y0142830D02*
X0121236Y0142913D01*
X0121230Y0142996D01*
X0121220Y0143079D01*
X0121207Y0143162D01*
X0121189Y0143243D01*
X0121168Y0143324D01*
X0121143Y0143403D01*
X0121114Y0143481D01*
X0121082Y0143558D01*
X0121046Y0143633D01*
X0121007Y0143707D01*
X0120964Y0143778D01*
X0120918Y0143848D01*
X0120868Y0143915D01*
X0120816Y0143980D01*
X0120761Y0144042D01*
X0120702Y0144102D01*
X0120641Y0144159D01*
X0120578Y0144213D01*
X0120512Y0144264D01*
X0120443Y0144311D01*
X0120373Y0144356D01*
X0120300Y0144397D01*
X0120226Y0144434D01*
X0120150Y0144469D01*
X0120072Y0144499D01*
X0119994Y0144526D01*
X0119913Y0144549D01*
X0119832Y0144569D01*
X0119750Y0144584D01*
X0119668Y0144596D01*
X0119585Y0144604D01*
X0119502Y0144608D01*
X0119418Y0144608D01*
X0119335Y0144604D01*
X0119252Y0144596D01*
X0119170Y0144584D01*
X0119088Y0144569D01*
X0119007Y0144549D01*
X0118926Y0144526D01*
X0118848Y0144499D01*
X0118770Y0144469D01*
X0118694Y0144434D01*
X0118620Y0144397D01*
X0118547Y0144356D01*
X0118477Y0144311D01*
X0118408Y0144264D01*
X0118342Y0144213D01*
X0118279Y0144159D01*
X0118218Y0144102D01*
X0118159Y0144042D01*
X0118104Y0143980D01*
X0118052Y0143915D01*
X0118002Y0143848D01*
X0117956Y0143778D01*
X0117913Y0143707D01*
X0117874Y0143633D01*
X0117838Y0143558D01*
X0117806Y0143481D01*
X0117777Y0143403D01*
X0117752Y0143324D01*
X0117731Y0143243D01*
X0117713Y0143162D01*
X0117700Y0143079D01*
X0117690Y0142996D01*
X0117684Y0142913D01*
X0117682Y0142830D01*
X0117683Y0142830D02*
X0117683Y0141052D01*
X0117683Y0146918D02*
X0117683Y0150473D01*
X0117683Y0148696D02*
X0124083Y0148696D01*
X0122660Y0146918D01*
X0078013Y0156500D02*
X0078024Y0157370D01*
X0078056Y0158239D01*
X0078109Y0159107D01*
X0078184Y0159973D01*
X0078279Y0160837D01*
X0078397Y0161699D01*
X0078535Y0162558D01*
X0078694Y0163413D01*
X0078874Y0164263D01*
X0079075Y0165110D01*
X0079297Y0165950D01*
X0079539Y0166786D01*
X0079801Y0167615D01*
X0080084Y0168437D01*
X0080387Y0169252D01*
X0080710Y0170060D01*
X0081053Y0170859D01*
X0081415Y0171650D01*
X0081796Y0172431D01*
X0082197Y0173203D01*
X0082616Y0173965D01*
X0083054Y0174716D01*
X0083510Y0175457D01*
X0083985Y0176186D01*
X0084477Y0176903D01*
X0084986Y0177607D01*
X0085513Y0178300D01*
X0086056Y0178978D01*
X0086616Y0179644D01*
X0087192Y0180295D01*
X0087784Y0180932D01*
X0088391Y0181555D01*
X0089014Y0182162D01*
X0089651Y0182754D01*
X0090302Y0183330D01*
X0090968Y0183890D01*
X0091646Y0184433D01*
X0092339Y0184960D01*
X0093043Y0185469D01*
X0093760Y0185961D01*
X0094489Y0186436D01*
X0095230Y0186892D01*
X0095981Y0187330D01*
X0096743Y0187749D01*
X0097515Y0188150D01*
X0098296Y0188531D01*
X0099087Y0188893D01*
X0099886Y0189236D01*
X0100694Y0189559D01*
X0101509Y0189862D01*
X0102331Y0190145D01*
X0103160Y0190407D01*
X0103996Y0190649D01*
X0104836Y0190871D01*
X0105683Y0191072D01*
X0106533Y0191252D01*
X0107388Y0191411D01*
X0108247Y0191549D01*
X0109109Y0191667D01*
X0109973Y0191762D01*
X0110839Y0191837D01*
X0111707Y0191890D01*
X0112576Y0191922D01*
X0113446Y0191933D01*
X0114316Y0191922D01*
X0115185Y0191890D01*
X0116053Y0191837D01*
X0116919Y0191762D01*
X0117783Y0191667D01*
X0118645Y0191549D01*
X0119504Y0191411D01*
X0120359Y0191252D01*
X0121209Y0191072D01*
X0122056Y0190871D01*
X0122896Y0190649D01*
X0123732Y0190407D01*
X0124561Y0190145D01*
X0125383Y0189862D01*
X0126198Y0189559D01*
X0127006Y0189236D01*
X0127805Y0188893D01*
X0128596Y0188531D01*
X0129377Y0188150D01*
X0130149Y0187749D01*
X0130911Y0187330D01*
X0131662Y0186892D01*
X0132403Y0186436D01*
X0133132Y0185961D01*
X0133849Y0185469D01*
X0134553Y0184960D01*
X0135246Y0184433D01*
X0135924Y0183890D01*
X0136590Y0183330D01*
X0137241Y0182754D01*
X0137878Y0182162D01*
X0138501Y0181555D01*
X0139108Y0180932D01*
X0139700Y0180295D01*
X0140276Y0179644D01*
X0140836Y0178978D01*
X0141379Y0178300D01*
X0141906Y0177607D01*
X0142415Y0176903D01*
X0142907Y0176186D01*
X0143382Y0175457D01*
X0143838Y0174716D01*
X0144276Y0173965D01*
X0144695Y0173203D01*
X0145096Y0172431D01*
X0145477Y0171650D01*
X0145839Y0170859D01*
X0146182Y0170060D01*
X0146505Y0169252D01*
X0146808Y0168437D01*
X0147091Y0167615D01*
X0147353Y0166786D01*
X0147595Y0165950D01*
X0147817Y0165110D01*
X0148018Y0164263D01*
X0148198Y0163413D01*
X0148357Y0162558D01*
X0148495Y0161699D01*
X0148613Y0160837D01*
X0148708Y0159973D01*
X0148783Y0159107D01*
X0148836Y0158239D01*
X0148868Y0157370D01*
X0148879Y0156500D01*
X0148868Y0155630D01*
X0148836Y0154761D01*
X0148783Y0153893D01*
X0148708Y0153027D01*
X0148613Y0152163D01*
X0148495Y0151301D01*
X0148357Y0150442D01*
X0148198Y0149587D01*
X0148018Y0148737D01*
X0147817Y0147890D01*
X0147595Y0147050D01*
X0147353Y0146214D01*
X0147091Y0145385D01*
X0146808Y0144563D01*
X0146505Y0143748D01*
X0146182Y0142940D01*
X0145839Y0142141D01*
X0145477Y0141350D01*
X0145096Y0140569D01*
X0144695Y0139797D01*
X0144276Y0139035D01*
X0143838Y0138284D01*
X0143382Y0137543D01*
X0142907Y0136814D01*
X0142415Y0136097D01*
X0141906Y0135393D01*
X0141379Y0134700D01*
X0140836Y0134022D01*
X0140276Y0133356D01*
X0139700Y0132705D01*
X0139108Y0132068D01*
X0138501Y0131445D01*
X0137878Y0130838D01*
X0137241Y0130246D01*
X0136590Y0129670D01*
X0135924Y0129110D01*
X0135246Y0128567D01*
X0134553Y0128040D01*
X0133849Y0127531D01*
X0133132Y0127039D01*
X0132403Y0126564D01*
X0131662Y0126108D01*
X0130911Y0125670D01*
X0130149Y0125251D01*
X0129377Y0124850D01*
X0128596Y0124469D01*
X0127805Y0124107D01*
X0127006Y0123764D01*
X0126198Y0123441D01*
X0125383Y0123138D01*
X0124561Y0122855D01*
X0123732Y0122593D01*
X0122896Y0122351D01*
X0122056Y0122129D01*
X0121209Y0121928D01*
X0120359Y0121748D01*
X0119504Y0121589D01*
X0118645Y0121451D01*
X0117783Y0121333D01*
X0116919Y0121238D01*
X0116053Y0121163D01*
X0115185Y0121110D01*
X0114316Y0121078D01*
X0113446Y0121067D01*
X0112576Y0121078D01*
X0111707Y0121110D01*
X0110839Y0121163D01*
X0109973Y0121238D01*
X0109109Y0121333D01*
X0108247Y0121451D01*
X0107388Y0121589D01*
X0106533Y0121748D01*
X0105683Y0121928D01*
X0104836Y0122129D01*
X0103996Y0122351D01*
X0103160Y0122593D01*
X0102331Y0122855D01*
X0101509Y0123138D01*
X0100694Y0123441D01*
X0099886Y0123764D01*
X0099087Y0124107D01*
X0098296Y0124469D01*
X0097515Y0124850D01*
X0096743Y0125251D01*
X0095981Y0125670D01*
X0095230Y0126108D01*
X0094489Y0126564D01*
X0093760Y0127039D01*
X0093043Y0127531D01*
X0092339Y0128040D01*
X0091646Y0128567D01*
X0090968Y0129110D01*
X0090302Y0129670D01*
X0089651Y0130246D01*
X0089014Y0130838D01*
X0088391Y0131445D01*
X0087784Y0132068D01*
X0087192Y0132705D01*
X0086616Y0133356D01*
X0086056Y0134022D01*
X0085513Y0134700D01*
X0084986Y0135393D01*
X0084477Y0136097D01*
X0083985Y0136814D01*
X0083510Y0137543D01*
X0083054Y0138284D01*
X0082616Y0139035D01*
X0082197Y0139797D01*
X0081796Y0140569D01*
X0081415Y0141350D01*
X0081053Y0142141D01*
X0080710Y0142940D01*
X0080387Y0143748D01*
X0080084Y0144563D01*
X0079801Y0145385D01*
X0079539Y0146214D01*
X0079297Y0147050D01*
X0079075Y0147890D01*
X0078874Y0148737D01*
X0078694Y0149587D01*
X0078535Y0150442D01*
X0078397Y0151301D01*
X0078279Y0152163D01*
X0078184Y0153027D01*
X0078109Y0153893D01*
X0078056Y0154761D01*
X0078024Y0155630D01*
X0078013Y0156500D01*
X0188446Y0085250D02*
X0188446Y0055250D01*
X0208446Y0055250D01*
X0208446Y0085250D02*
X0188446Y0085250D01*
D12*
X0122075Y0074850D02*
X0122075Y0068206D01*
X0122073Y0068106D01*
X0122067Y0068005D01*
X0122057Y0067906D01*
X0122044Y0067806D01*
X0122026Y0067707D01*
X0122004Y0067609D01*
X0121979Y0067512D01*
X0121950Y0067416D01*
X0121917Y0067321D01*
X0121880Y0067228D01*
X0121840Y0067136D01*
X0121796Y0067046D01*
X0121749Y0066957D01*
X0121698Y0066870D01*
X0121644Y0066786D01*
X0121587Y0066704D01*
X0121526Y0066624D01*
X0121463Y0066546D01*
X0121396Y0066471D01*
X0121326Y0066399D01*
X0121254Y0066329D01*
X0121179Y0066262D01*
X0121101Y0066199D01*
X0121021Y0066138D01*
X0120939Y0066081D01*
X0120855Y0066027D01*
X0120768Y0065976D01*
X0120679Y0065929D01*
X0120589Y0065885D01*
X0120497Y0065845D01*
X0120404Y0065808D01*
X0120309Y0065775D01*
X0120213Y0065746D01*
X0120116Y0065721D01*
X0120018Y0065699D01*
X0119919Y0065681D01*
X0119819Y0065668D01*
X0119720Y0065658D01*
X0119619Y0065652D01*
X0119519Y0065650D01*
X0119419Y0065652D01*
X0119318Y0065658D01*
X0119219Y0065668D01*
X0119119Y0065681D01*
X0119020Y0065699D01*
X0118922Y0065721D01*
X0118825Y0065746D01*
X0118729Y0065775D01*
X0118634Y0065808D01*
X0118541Y0065845D01*
X0118449Y0065885D01*
X0118359Y0065929D01*
X0118270Y0065976D01*
X0118183Y0066027D01*
X0118099Y0066081D01*
X0118017Y0066138D01*
X0117937Y0066199D01*
X0117859Y0066262D01*
X0117784Y0066329D01*
X0117712Y0066399D01*
X0117642Y0066471D01*
X0117575Y0066546D01*
X0117512Y0066624D01*
X0117451Y0066704D01*
X0117394Y0066786D01*
X0117340Y0066870D01*
X0117289Y0066957D01*
X0117242Y0067046D01*
X0117198Y0067136D01*
X0117158Y0067228D01*
X0117121Y0067321D01*
X0117088Y0067416D01*
X0117059Y0067512D01*
X0117034Y0067609D01*
X0117012Y0067707D01*
X0116994Y0067806D01*
X0116981Y0067906D01*
X0116971Y0068005D01*
X0116965Y0068106D01*
X0116963Y0068206D01*
X0116964Y0068206D02*
X0116964Y0074850D01*
X0111573Y0074850D02*
X0111573Y0065650D01*
X0110807Y0066672D02*
X0110731Y0066688D01*
X0110657Y0066707D01*
X0110583Y0066730D01*
X0110511Y0066757D01*
X0110440Y0066788D01*
X0110371Y0066822D01*
X0110304Y0066859D01*
X0110239Y0066900D01*
X0110176Y0066944D01*
X0110115Y0066991D01*
X0110057Y0067042D01*
X0110001Y0067095D01*
X0109948Y0067151D01*
X0109898Y0067209D01*
X0109850Y0067270D01*
X0109806Y0067333D01*
X0109766Y0067398D01*
X0109728Y0067466D01*
X0109694Y0067535D01*
X0109664Y0067605D01*
X0109637Y0067678D01*
X0109614Y0067751D01*
X0109594Y0067825D01*
X0109579Y0067901D01*
X0109567Y0067977D01*
X0109559Y0068053D01*
X0109555Y0068130D01*
X0109554Y0068207D01*
X0109558Y0068284D01*
X0109565Y0068361D01*
X0109577Y0068437D01*
X0109592Y0068513D01*
X0109611Y0068587D01*
X0109634Y0068661D01*
X0109660Y0068733D01*
X0109690Y0068804D01*
X0109724Y0068873D01*
X0109761Y0068941D01*
X0109801Y0069006D01*
X0109844Y0069070D01*
X0109891Y0069131D01*
X0109941Y0069190D01*
X0109994Y0069246D01*
X0110049Y0069299D01*
X0110107Y0069350D01*
X0110168Y0069398D01*
X0110230Y0069442D01*
X0110295Y0069483D01*
X0111573Y0070250D01*
X0112851Y0071017D01*
X0113617Y0067184D02*
X0113507Y0067120D01*
X0113396Y0067060D01*
X0113282Y0067004D01*
X0113167Y0066951D01*
X0113050Y0066901D01*
X0112931Y0066856D01*
X0112811Y0066814D01*
X0112690Y0066776D01*
X0112568Y0066741D01*
X0112445Y0066711D01*
X0112321Y0066684D01*
X0112196Y0066661D01*
X0112070Y0066643D01*
X0111944Y0066628D01*
X0111818Y0066617D01*
X0111691Y0066610D01*
X0111564Y0066607D01*
X0111437Y0066608D01*
X0111310Y0066613D01*
X0111184Y0066622D01*
X0111057Y0066635D01*
X0110931Y0066652D01*
X0110806Y0066673D01*
X0109529Y0073316D02*
X0109639Y0073380D01*
X0109751Y0073440D01*
X0109864Y0073496D01*
X0109979Y0073549D01*
X0110096Y0073599D01*
X0110215Y0073644D01*
X0110335Y0073686D01*
X0110456Y0073724D01*
X0110578Y0073759D01*
X0110701Y0073789D01*
X0110825Y0073816D01*
X0110950Y0073839D01*
X0111076Y0073857D01*
X0111202Y0073872D01*
X0111328Y0073883D01*
X0111455Y0073890D01*
X0111582Y0073893D01*
X0111709Y0073892D01*
X0111836Y0073887D01*
X0111962Y0073878D01*
X0112089Y0073865D01*
X0112214Y0073848D01*
X0112340Y0073827D01*
X0112339Y0073828D02*
X0112415Y0073812D01*
X0112489Y0073793D01*
X0112563Y0073770D01*
X0112635Y0073743D01*
X0112705Y0073712D01*
X0112775Y0073678D01*
X0112842Y0073641D01*
X0112907Y0073600D01*
X0112970Y0073556D01*
X0113031Y0073509D01*
X0113089Y0073458D01*
X0113145Y0073405D01*
X0113198Y0073349D01*
X0113248Y0073291D01*
X0113296Y0073230D01*
X0113340Y0073167D01*
X0113380Y0073102D01*
X0113418Y0073034D01*
X0113452Y0072965D01*
X0113482Y0072895D01*
X0113509Y0072822D01*
X0113532Y0072749D01*
X0113552Y0072675D01*
X0113567Y0072599D01*
X0113579Y0072523D01*
X0113587Y0072447D01*
X0113591Y0072370D01*
X0113592Y0072293D01*
X0113588Y0072216D01*
X0113581Y0072139D01*
X0113569Y0072063D01*
X0113554Y0071987D01*
X0113535Y0071913D01*
X0113512Y0071839D01*
X0113486Y0071767D01*
X0113456Y0071696D01*
X0113422Y0071627D01*
X0113385Y0071559D01*
X0113345Y0071494D01*
X0113302Y0071430D01*
X0113255Y0071369D01*
X0113205Y0071310D01*
X0113152Y0071254D01*
X0113097Y0071201D01*
X0113039Y0071150D01*
X0112978Y0071102D01*
X0112916Y0071058D01*
X0112851Y0071017D01*
X0106457Y0072806D02*
X0103901Y0074850D01*
X0103901Y0065650D01*
X0101346Y0065650D02*
X0106457Y0065650D01*
M02*
