G75*
%MOIN*%
%OFA0B0*%
%FSLAX25Y25*%
%IPPOS*%
%LPD*%
%AMOC8*
5,1,8,0,0,1.08239X$1,22.5*
%
%ADD10C,0.12311*%
%ADD11C,0.07100*%
%ADD12C,0.07500*%
%ADD13OC8,0.08100*%
%ADD14C,0.06100*%
%ADD15C,0.03200*%
%ADD16C,0.03278*%
D10*
X0027196Y0150250D03*
X0200946Y0151500D03*
D11*
X0188446Y0114148D03*
X0178446Y0114148D03*
X0168446Y0114148D03*
X0158446Y0114148D03*
X0148446Y0114148D03*
X0138446Y0114148D03*
X0128446Y0114148D03*
X0118446Y0114148D03*
X0108446Y0114148D03*
X0098446Y0114148D03*
X0088446Y0114148D03*
X0078446Y0114148D03*
X0068446Y0114148D03*
X0058446Y0114148D03*
X0048446Y0114148D03*
X0048446Y0026352D03*
X0058446Y0026352D03*
X0068446Y0026352D03*
X0078446Y0026352D03*
X0088446Y0026352D03*
X0088446Y0015250D03*
X0078446Y0015250D03*
X0098446Y0015250D03*
X0108446Y0015250D03*
X0108446Y0026352D03*
X0098446Y0026352D03*
X0118446Y0026352D03*
X0128446Y0026352D03*
X0138446Y0026352D03*
X0138446Y0015250D03*
X0128446Y0015250D03*
X0118446Y0015250D03*
X0148446Y0015250D03*
X0148446Y0026352D03*
X0158446Y0026352D03*
X0168446Y0026352D03*
X0178446Y0026352D03*
X0188446Y0026352D03*
D12*
X0133131Y0156500D03*
X0093761Y0156500D03*
D13*
X0023446Y0132750D03*
X0202196Y0020250D03*
D14*
X0025946Y0065191D03*
X0025946Y0073065D03*
X0025946Y0080939D03*
X0025946Y0088813D03*
X0025946Y0096687D03*
X0025946Y0104561D03*
X0025946Y0112435D03*
X0025946Y0120309D03*
D15*
X0020946Y0026500D03*
X0028446Y0014000D03*
X0040946Y0014000D03*
X0053446Y0014000D03*
X0065946Y0014000D03*
X0040946Y0026500D03*
X0053446Y0039000D03*
X0065946Y0039000D03*
X0074696Y0042750D03*
X0078446Y0051500D03*
X0078446Y0064000D03*
X0078446Y0076500D03*
X0078446Y0089000D03*
X0065946Y0089000D03*
X0065946Y0076500D03*
X0065946Y0064000D03*
X0065946Y0051500D03*
X0053446Y0051500D03*
X0053446Y0064000D03*
X0053446Y0076500D03*
X0053446Y0089000D03*
X0040946Y0089000D03*
X0040946Y0076500D03*
X0040946Y0064000D03*
X0040946Y0051500D03*
X0093446Y0092750D03*
X0103446Y0089000D03*
X0115946Y0089000D03*
X0115946Y0076500D03*
X0103446Y0076500D03*
X0103446Y0064000D03*
X0103446Y0051500D03*
X0098446Y0042750D03*
X0103446Y0039000D03*
X0115946Y0039000D03*
X0115946Y0051500D03*
X0128446Y0051500D03*
X0140946Y0051500D03*
X0140946Y0039000D03*
X0128446Y0039000D03*
X0128446Y0064000D03*
X0140946Y0064000D03*
X0140946Y0076500D03*
X0140946Y0089000D03*
X0140946Y0101500D03*
X0128446Y0101500D03*
X0128446Y0089000D03*
X0128446Y0076500D03*
X0153446Y0076500D03*
X0165946Y0076500D03*
X0165946Y0064000D03*
X0165946Y0051500D03*
X0165946Y0039000D03*
X0153446Y0039000D03*
X0153446Y0051500D03*
X0153446Y0064000D03*
X0153446Y0089000D03*
X0165946Y0089000D03*
X0165946Y0101500D03*
X0153446Y0101500D03*
X0165946Y0126500D03*
X0178446Y0126500D03*
X0190946Y0126500D03*
X0203446Y0126500D03*
X0203446Y0114000D03*
X0203446Y0101500D03*
X0203446Y0089000D03*
X0203446Y0076500D03*
X0203446Y0064000D03*
X0190946Y0064000D03*
X0190946Y0076500D03*
X0190946Y0089000D03*
X0190946Y0101500D03*
X0178446Y0101500D03*
X0178446Y0089000D03*
X0178446Y0076500D03*
X0178446Y0064000D03*
X0178446Y0051500D03*
X0178446Y0014000D03*
X0165946Y0014000D03*
X0140946Y0126500D03*
X0128446Y0126500D03*
X0128446Y0139000D03*
X0140946Y0139000D03*
X0128446Y0151500D03*
X0115946Y0151500D03*
X0115946Y0139000D03*
X0103446Y0139000D03*
X0103446Y0151500D03*
X0103446Y0126500D03*
X0095946Y0126500D03*
X0078446Y0126500D03*
X0078446Y0139000D03*
X0078446Y0151500D03*
X0065946Y0151500D03*
X0065946Y0139000D03*
X0053446Y0139000D03*
X0053446Y0151500D03*
X0040946Y0151500D03*
X0040946Y0139000D03*
X0040946Y0126500D03*
X0053446Y0126500D03*
X0065946Y0126500D03*
X0028446Y0139000D03*
X0115946Y0126500D03*
X0153446Y0151500D03*
X0165946Y0151500D03*
X0165946Y0139000D03*
X0178446Y0139000D03*
X0190946Y0139000D03*
X0190946Y0151500D03*
X0178446Y0151500D03*
X0203446Y0139000D03*
D16*
X0103446Y0022750D03*
X0113446Y0020250D03*
X0143446Y0020250D03*
M02*
