G75*
%MOIN*%
%OFA0B0*%
%FSLAX25Y25*%
%IPPOS*%
%LPD*%
%AMOC8*
5,1,8,0,0,1.08239X$1,22.5*
%
%ADD10C,0.00000*%
D10*
X0015946Y0020553D02*
X0015946Y0148864D01*
X0021290Y0150250D02*
X0021292Y0150403D01*
X0021298Y0150557D01*
X0021308Y0150710D01*
X0021322Y0150862D01*
X0021340Y0151015D01*
X0021362Y0151166D01*
X0021387Y0151317D01*
X0021417Y0151468D01*
X0021451Y0151618D01*
X0021488Y0151766D01*
X0021529Y0151914D01*
X0021574Y0152060D01*
X0021623Y0152206D01*
X0021676Y0152350D01*
X0021732Y0152492D01*
X0021792Y0152633D01*
X0021856Y0152773D01*
X0021923Y0152911D01*
X0021994Y0153047D01*
X0022069Y0153181D01*
X0022146Y0153313D01*
X0022228Y0153443D01*
X0022312Y0153571D01*
X0022400Y0153697D01*
X0022491Y0153820D01*
X0022585Y0153941D01*
X0022683Y0154059D01*
X0022783Y0154175D01*
X0022887Y0154288D01*
X0022993Y0154399D01*
X0023102Y0154507D01*
X0023214Y0154612D01*
X0023328Y0154713D01*
X0023446Y0154812D01*
X0023565Y0154908D01*
X0023687Y0155001D01*
X0023812Y0155090D01*
X0023939Y0155177D01*
X0024068Y0155259D01*
X0024199Y0155339D01*
X0024332Y0155415D01*
X0024467Y0155488D01*
X0024604Y0155557D01*
X0024743Y0155622D01*
X0024883Y0155684D01*
X0025025Y0155742D01*
X0025168Y0155797D01*
X0025313Y0155848D01*
X0025459Y0155895D01*
X0025606Y0155938D01*
X0025754Y0155977D01*
X0025903Y0156013D01*
X0026053Y0156044D01*
X0026204Y0156072D01*
X0026355Y0156096D01*
X0026508Y0156116D01*
X0026660Y0156132D01*
X0026813Y0156144D01*
X0026966Y0156152D01*
X0027119Y0156156D01*
X0027273Y0156156D01*
X0027426Y0156152D01*
X0027579Y0156144D01*
X0027732Y0156132D01*
X0027884Y0156116D01*
X0028037Y0156096D01*
X0028188Y0156072D01*
X0028339Y0156044D01*
X0028489Y0156013D01*
X0028638Y0155977D01*
X0028786Y0155938D01*
X0028933Y0155895D01*
X0029079Y0155848D01*
X0029224Y0155797D01*
X0029367Y0155742D01*
X0029509Y0155684D01*
X0029649Y0155622D01*
X0029788Y0155557D01*
X0029925Y0155488D01*
X0030060Y0155415D01*
X0030193Y0155339D01*
X0030324Y0155259D01*
X0030453Y0155177D01*
X0030580Y0155090D01*
X0030705Y0155001D01*
X0030827Y0154908D01*
X0030946Y0154812D01*
X0031064Y0154713D01*
X0031178Y0154612D01*
X0031290Y0154507D01*
X0031399Y0154399D01*
X0031505Y0154288D01*
X0031609Y0154175D01*
X0031709Y0154059D01*
X0031807Y0153941D01*
X0031901Y0153820D01*
X0031992Y0153697D01*
X0032080Y0153571D01*
X0032164Y0153443D01*
X0032246Y0153313D01*
X0032323Y0153181D01*
X0032398Y0153047D01*
X0032469Y0152911D01*
X0032536Y0152773D01*
X0032600Y0152633D01*
X0032660Y0152492D01*
X0032716Y0152350D01*
X0032769Y0152206D01*
X0032818Y0152060D01*
X0032863Y0151914D01*
X0032904Y0151766D01*
X0032941Y0151618D01*
X0032975Y0151468D01*
X0033005Y0151317D01*
X0033030Y0151166D01*
X0033052Y0151015D01*
X0033070Y0150862D01*
X0033084Y0150710D01*
X0033094Y0150557D01*
X0033100Y0150403D01*
X0033102Y0150250D01*
X0033100Y0150097D01*
X0033094Y0149943D01*
X0033084Y0149790D01*
X0033070Y0149638D01*
X0033052Y0149485D01*
X0033030Y0149334D01*
X0033005Y0149183D01*
X0032975Y0149032D01*
X0032941Y0148882D01*
X0032904Y0148734D01*
X0032863Y0148586D01*
X0032818Y0148440D01*
X0032769Y0148294D01*
X0032716Y0148150D01*
X0032660Y0148008D01*
X0032600Y0147867D01*
X0032536Y0147727D01*
X0032469Y0147589D01*
X0032398Y0147453D01*
X0032323Y0147319D01*
X0032246Y0147187D01*
X0032164Y0147057D01*
X0032080Y0146929D01*
X0031992Y0146803D01*
X0031901Y0146680D01*
X0031807Y0146559D01*
X0031709Y0146441D01*
X0031609Y0146325D01*
X0031505Y0146212D01*
X0031399Y0146101D01*
X0031290Y0145993D01*
X0031178Y0145888D01*
X0031064Y0145787D01*
X0030946Y0145688D01*
X0030827Y0145592D01*
X0030705Y0145499D01*
X0030580Y0145410D01*
X0030453Y0145323D01*
X0030324Y0145241D01*
X0030193Y0145161D01*
X0030060Y0145085D01*
X0029925Y0145012D01*
X0029788Y0144943D01*
X0029649Y0144878D01*
X0029509Y0144816D01*
X0029367Y0144758D01*
X0029224Y0144703D01*
X0029079Y0144652D01*
X0028933Y0144605D01*
X0028786Y0144562D01*
X0028638Y0144523D01*
X0028489Y0144487D01*
X0028339Y0144456D01*
X0028188Y0144428D01*
X0028037Y0144404D01*
X0027884Y0144384D01*
X0027732Y0144368D01*
X0027579Y0144356D01*
X0027426Y0144348D01*
X0027273Y0144344D01*
X0027119Y0144344D01*
X0026966Y0144348D01*
X0026813Y0144356D01*
X0026660Y0144368D01*
X0026508Y0144384D01*
X0026355Y0144404D01*
X0026204Y0144428D01*
X0026053Y0144456D01*
X0025903Y0144487D01*
X0025754Y0144523D01*
X0025606Y0144562D01*
X0025459Y0144605D01*
X0025313Y0144652D01*
X0025168Y0144703D01*
X0025025Y0144758D01*
X0024883Y0144816D01*
X0024743Y0144878D01*
X0024604Y0144943D01*
X0024467Y0145012D01*
X0024332Y0145085D01*
X0024199Y0145161D01*
X0024068Y0145241D01*
X0023939Y0145323D01*
X0023812Y0145410D01*
X0023687Y0145499D01*
X0023565Y0145592D01*
X0023446Y0145688D01*
X0023328Y0145787D01*
X0023214Y0145888D01*
X0023102Y0145993D01*
X0022993Y0146101D01*
X0022887Y0146212D01*
X0022783Y0146325D01*
X0022683Y0146441D01*
X0022585Y0146559D01*
X0022491Y0146680D01*
X0022400Y0146803D01*
X0022312Y0146929D01*
X0022228Y0147057D01*
X0022146Y0147187D01*
X0022069Y0147319D01*
X0021994Y0147453D01*
X0021923Y0147589D01*
X0021856Y0147727D01*
X0021792Y0147867D01*
X0021732Y0148008D01*
X0021676Y0148150D01*
X0021623Y0148294D01*
X0021574Y0148440D01*
X0021529Y0148586D01*
X0021488Y0148734D01*
X0021451Y0148882D01*
X0021417Y0149032D01*
X0021387Y0149183D01*
X0021362Y0149334D01*
X0021340Y0149485D01*
X0021322Y0149638D01*
X0021308Y0149790D01*
X0021298Y0149943D01*
X0021292Y0150097D01*
X0021290Y0150250D01*
X0015945Y0148864D02*
X0015949Y0149173D01*
X0015960Y0149481D01*
X0015979Y0149789D01*
X0016005Y0150097D01*
X0016038Y0150404D01*
X0016079Y0150710D01*
X0016127Y0151015D01*
X0016183Y0151318D01*
X0016246Y0151620D01*
X0016316Y0151921D01*
X0016394Y0152220D01*
X0016478Y0152517D01*
X0016570Y0152811D01*
X0016669Y0153104D01*
X0016775Y0153394D01*
X0016888Y0153681D01*
X0017008Y0153965D01*
X0017135Y0154247D01*
X0017268Y0154525D01*
X0017408Y0154800D01*
X0017555Y0155072D01*
X0017708Y0155340D01*
X0017868Y0155604D01*
X0018034Y0155864D01*
X0018206Y0156120D01*
X0018385Y0156372D01*
X0018569Y0156620D01*
X0018759Y0156863D01*
X0018956Y0157101D01*
X0019158Y0157335D01*
X0019365Y0157563D01*
X0019578Y0157787D01*
X0019796Y0158005D01*
X0020020Y0158218D01*
X0020248Y0158425D01*
X0020482Y0158627D01*
X0020720Y0158824D01*
X0020963Y0159014D01*
X0021211Y0159198D01*
X0021463Y0159377D01*
X0021719Y0159549D01*
X0021979Y0159715D01*
X0022243Y0159875D01*
X0022511Y0160028D01*
X0022783Y0160175D01*
X0023058Y0160315D01*
X0023336Y0160448D01*
X0023618Y0160575D01*
X0023902Y0160695D01*
X0024189Y0160808D01*
X0024479Y0160914D01*
X0024772Y0161013D01*
X0025066Y0161105D01*
X0025363Y0161189D01*
X0025662Y0161267D01*
X0025963Y0161337D01*
X0026265Y0161400D01*
X0026568Y0161456D01*
X0026873Y0161504D01*
X0027179Y0161545D01*
X0027486Y0161578D01*
X0027794Y0161604D01*
X0028102Y0161623D01*
X0028410Y0161634D01*
X0028719Y0161638D01*
X0199676Y0161638D01*
X0199676Y0161637D02*
X0199918Y0161665D01*
X0200162Y0161686D01*
X0200405Y0161702D01*
X0200649Y0161711D01*
X0200893Y0161715D01*
X0201137Y0161713D01*
X0201381Y0161705D01*
X0201624Y0161691D01*
X0201867Y0161671D01*
X0202110Y0161645D01*
X0202352Y0161614D01*
X0202593Y0161576D01*
X0202833Y0161533D01*
X0203072Y0161484D01*
X0203310Y0161429D01*
X0203547Y0161369D01*
X0203781Y0161303D01*
X0204015Y0161231D01*
X0204246Y0161154D01*
X0204475Y0161071D01*
X0204703Y0160982D01*
X0204928Y0160888D01*
X0205151Y0160789D01*
X0205371Y0160684D01*
X0205589Y0160574D01*
X0205804Y0160459D01*
X0206016Y0160338D01*
X0206225Y0160213D01*
X0206431Y0160082D01*
X0206634Y0159946D01*
X0206834Y0159806D01*
X0207030Y0159661D01*
X0207223Y0159511D01*
X0207412Y0159357D01*
X0207597Y0159198D01*
X0207778Y0159034D01*
X0207955Y0158867D01*
X0208128Y0158695D01*
X0208297Y0158518D01*
X0208462Y0158338D01*
X0208622Y0158154D01*
X0208778Y0157966D01*
X0208929Y0157775D01*
X0209075Y0157580D01*
X0209217Y0157381D01*
X0209354Y0157179D01*
X0209486Y0156974D01*
X0209612Y0156765D01*
X0209734Y0156554D01*
X0209851Y0156340D01*
X0209962Y0156123D01*
X0210069Y0155903D01*
X0210170Y0155681D01*
X0210265Y0155456D01*
X0210355Y0155229D01*
X0210440Y0155001D01*
X0210519Y0154770D01*
X0210592Y0154537D01*
X0210660Y0154303D01*
X0210722Y0154067D01*
X0210778Y0153829D01*
X0210828Y0153590D01*
X0210873Y0153351D01*
X0210912Y0153110D01*
X0210945Y0152868D01*
X0210946Y0152868D02*
X0210946Y0020250D01*
X0210927Y0019928D01*
X0210900Y0019607D01*
X0210865Y0019286D01*
X0210822Y0018967D01*
X0210771Y0018648D01*
X0210712Y0018331D01*
X0210646Y0018015D01*
X0210572Y0017701D01*
X0210490Y0017389D01*
X0210401Y0017080D01*
X0210304Y0016772D01*
X0210200Y0016467D01*
X0210088Y0016164D01*
X0209968Y0015865D01*
X0209842Y0015568D01*
X0209708Y0015275D01*
X0209567Y0014985D01*
X0209419Y0014698D01*
X0209264Y0014416D01*
X0209102Y0014137D01*
X0208933Y0013862D01*
X0208757Y0013591D01*
X0208575Y0013325D01*
X0208387Y0013063D01*
X0208192Y0012806D01*
X0207991Y0012554D01*
X0207784Y0012307D01*
X0207570Y0012065D01*
X0207351Y0011829D01*
X0207126Y0011598D01*
X0206896Y0011372D01*
X0206660Y0011152D01*
X0206419Y0010938D01*
X0206172Y0010730D01*
X0205921Y0010528D01*
X0205664Y0010333D01*
X0205403Y0010143D01*
X0205138Y0009960D01*
X0204868Y0009784D01*
X0204593Y0009615D01*
X0204315Y0009452D01*
X0204033Y0009296D01*
X0203747Y0009147D01*
X0203457Y0009005D01*
X0203164Y0008870D01*
X0202868Y0008743D01*
X0202568Y0008623D01*
X0202266Y0008510D01*
X0201962Y0008404D01*
X0201654Y0008307D01*
X0201345Y0008216D01*
X0201033Y0008134D01*
X0200719Y0008059D01*
X0200404Y0007991D01*
X0200087Y0007932D01*
X0199769Y0007880D01*
X0199449Y0007836D01*
X0199129Y0007800D01*
X0198807Y0007772D01*
X0198485Y0007752D01*
X0198163Y0007739D01*
X0197841Y0007735D01*
X0197518Y0007738D01*
X0197196Y0007750D01*
X0029999Y0007750D01*
X0029674Y0007738D01*
X0029350Y0007735D01*
X0029025Y0007740D01*
X0028700Y0007752D01*
X0028376Y0007772D01*
X0028052Y0007800D01*
X0027729Y0007836D01*
X0027407Y0007880D01*
X0027087Y0007931D01*
X0026767Y0007990D01*
X0026449Y0008057D01*
X0026133Y0008132D01*
X0025819Y0008214D01*
X0025507Y0008303D01*
X0025197Y0008401D01*
X0024889Y0008505D01*
X0024584Y0008617D01*
X0024282Y0008737D01*
X0023983Y0008863D01*
X0023687Y0008997D01*
X0023394Y0009138D01*
X0023105Y0009286D01*
X0022820Y0009441D01*
X0022538Y0009603D01*
X0022260Y0009772D01*
X0021987Y0009947D01*
X0021717Y0010129D01*
X0021453Y0010317D01*
X0021192Y0010511D01*
X0020937Y0010712D01*
X0020687Y0010919D01*
X0020441Y0011132D01*
X0020201Y0011351D01*
X0019966Y0011575D01*
X0019737Y0011805D01*
X0019513Y0012041D01*
X0019296Y0012282D01*
X0019084Y0012528D01*
X0018878Y0012779D01*
X0018678Y0013035D01*
X0018484Y0013296D01*
X0018297Y0013562D01*
X0018116Y0013832D01*
X0017942Y0014106D01*
X0017774Y0014384D01*
X0017613Y0014666D01*
X0017459Y0014952D01*
X0017312Y0015242D01*
X0017173Y0015535D01*
X0017040Y0015832D01*
X0016914Y0016131D01*
X0016796Y0016434D01*
X0016685Y0016739D01*
X0016581Y0017047D01*
X0016485Y0017358D01*
X0016397Y0017670D01*
X0016316Y0017985D01*
X0016242Y0018301D01*
X0016177Y0018619D01*
X0016119Y0018939D01*
X0016069Y0019260D01*
X0016026Y0019582D01*
X0015991Y0019905D01*
X0015965Y0020229D01*
X0015946Y0020553D01*
X0195040Y0151500D02*
X0195042Y0151653D01*
X0195048Y0151807D01*
X0195058Y0151960D01*
X0195072Y0152112D01*
X0195090Y0152265D01*
X0195112Y0152416D01*
X0195137Y0152567D01*
X0195167Y0152718D01*
X0195201Y0152868D01*
X0195238Y0153016D01*
X0195279Y0153164D01*
X0195324Y0153310D01*
X0195373Y0153456D01*
X0195426Y0153600D01*
X0195482Y0153742D01*
X0195542Y0153883D01*
X0195606Y0154023D01*
X0195673Y0154161D01*
X0195744Y0154297D01*
X0195819Y0154431D01*
X0195896Y0154563D01*
X0195978Y0154693D01*
X0196062Y0154821D01*
X0196150Y0154947D01*
X0196241Y0155070D01*
X0196335Y0155191D01*
X0196433Y0155309D01*
X0196533Y0155425D01*
X0196637Y0155538D01*
X0196743Y0155649D01*
X0196852Y0155757D01*
X0196964Y0155862D01*
X0197078Y0155963D01*
X0197196Y0156062D01*
X0197315Y0156158D01*
X0197437Y0156251D01*
X0197562Y0156340D01*
X0197689Y0156427D01*
X0197818Y0156509D01*
X0197949Y0156589D01*
X0198082Y0156665D01*
X0198217Y0156738D01*
X0198354Y0156807D01*
X0198493Y0156872D01*
X0198633Y0156934D01*
X0198775Y0156992D01*
X0198918Y0157047D01*
X0199063Y0157098D01*
X0199209Y0157145D01*
X0199356Y0157188D01*
X0199504Y0157227D01*
X0199653Y0157263D01*
X0199803Y0157294D01*
X0199954Y0157322D01*
X0200105Y0157346D01*
X0200258Y0157366D01*
X0200410Y0157382D01*
X0200563Y0157394D01*
X0200716Y0157402D01*
X0200869Y0157406D01*
X0201023Y0157406D01*
X0201176Y0157402D01*
X0201329Y0157394D01*
X0201482Y0157382D01*
X0201634Y0157366D01*
X0201787Y0157346D01*
X0201938Y0157322D01*
X0202089Y0157294D01*
X0202239Y0157263D01*
X0202388Y0157227D01*
X0202536Y0157188D01*
X0202683Y0157145D01*
X0202829Y0157098D01*
X0202974Y0157047D01*
X0203117Y0156992D01*
X0203259Y0156934D01*
X0203399Y0156872D01*
X0203538Y0156807D01*
X0203675Y0156738D01*
X0203810Y0156665D01*
X0203943Y0156589D01*
X0204074Y0156509D01*
X0204203Y0156427D01*
X0204330Y0156340D01*
X0204455Y0156251D01*
X0204577Y0156158D01*
X0204696Y0156062D01*
X0204814Y0155963D01*
X0204928Y0155862D01*
X0205040Y0155757D01*
X0205149Y0155649D01*
X0205255Y0155538D01*
X0205359Y0155425D01*
X0205459Y0155309D01*
X0205557Y0155191D01*
X0205651Y0155070D01*
X0205742Y0154947D01*
X0205830Y0154821D01*
X0205914Y0154693D01*
X0205996Y0154563D01*
X0206073Y0154431D01*
X0206148Y0154297D01*
X0206219Y0154161D01*
X0206286Y0154023D01*
X0206350Y0153883D01*
X0206410Y0153742D01*
X0206466Y0153600D01*
X0206519Y0153456D01*
X0206568Y0153310D01*
X0206613Y0153164D01*
X0206654Y0153016D01*
X0206691Y0152868D01*
X0206725Y0152718D01*
X0206755Y0152567D01*
X0206780Y0152416D01*
X0206802Y0152265D01*
X0206820Y0152112D01*
X0206834Y0151960D01*
X0206844Y0151807D01*
X0206850Y0151653D01*
X0206852Y0151500D01*
X0206850Y0151347D01*
X0206844Y0151193D01*
X0206834Y0151040D01*
X0206820Y0150888D01*
X0206802Y0150735D01*
X0206780Y0150584D01*
X0206755Y0150433D01*
X0206725Y0150282D01*
X0206691Y0150132D01*
X0206654Y0149984D01*
X0206613Y0149836D01*
X0206568Y0149690D01*
X0206519Y0149544D01*
X0206466Y0149400D01*
X0206410Y0149258D01*
X0206350Y0149117D01*
X0206286Y0148977D01*
X0206219Y0148839D01*
X0206148Y0148703D01*
X0206073Y0148569D01*
X0205996Y0148437D01*
X0205914Y0148307D01*
X0205830Y0148179D01*
X0205742Y0148053D01*
X0205651Y0147930D01*
X0205557Y0147809D01*
X0205459Y0147691D01*
X0205359Y0147575D01*
X0205255Y0147462D01*
X0205149Y0147351D01*
X0205040Y0147243D01*
X0204928Y0147138D01*
X0204814Y0147037D01*
X0204696Y0146938D01*
X0204577Y0146842D01*
X0204455Y0146749D01*
X0204330Y0146660D01*
X0204203Y0146573D01*
X0204074Y0146491D01*
X0203943Y0146411D01*
X0203810Y0146335D01*
X0203675Y0146262D01*
X0203538Y0146193D01*
X0203399Y0146128D01*
X0203259Y0146066D01*
X0203117Y0146008D01*
X0202974Y0145953D01*
X0202829Y0145902D01*
X0202683Y0145855D01*
X0202536Y0145812D01*
X0202388Y0145773D01*
X0202239Y0145737D01*
X0202089Y0145706D01*
X0201938Y0145678D01*
X0201787Y0145654D01*
X0201634Y0145634D01*
X0201482Y0145618D01*
X0201329Y0145606D01*
X0201176Y0145598D01*
X0201023Y0145594D01*
X0200869Y0145594D01*
X0200716Y0145598D01*
X0200563Y0145606D01*
X0200410Y0145618D01*
X0200258Y0145634D01*
X0200105Y0145654D01*
X0199954Y0145678D01*
X0199803Y0145706D01*
X0199653Y0145737D01*
X0199504Y0145773D01*
X0199356Y0145812D01*
X0199209Y0145855D01*
X0199063Y0145902D01*
X0198918Y0145953D01*
X0198775Y0146008D01*
X0198633Y0146066D01*
X0198493Y0146128D01*
X0198354Y0146193D01*
X0198217Y0146262D01*
X0198082Y0146335D01*
X0197949Y0146411D01*
X0197818Y0146491D01*
X0197689Y0146573D01*
X0197562Y0146660D01*
X0197437Y0146749D01*
X0197315Y0146842D01*
X0197196Y0146938D01*
X0197078Y0147037D01*
X0196964Y0147138D01*
X0196852Y0147243D01*
X0196743Y0147351D01*
X0196637Y0147462D01*
X0196533Y0147575D01*
X0196433Y0147691D01*
X0196335Y0147809D01*
X0196241Y0147930D01*
X0196150Y0148053D01*
X0196062Y0148179D01*
X0195978Y0148307D01*
X0195896Y0148437D01*
X0195819Y0148569D01*
X0195744Y0148703D01*
X0195673Y0148839D01*
X0195606Y0148977D01*
X0195542Y0149117D01*
X0195482Y0149258D01*
X0195426Y0149400D01*
X0195373Y0149544D01*
X0195324Y0149690D01*
X0195279Y0149836D01*
X0195238Y0149984D01*
X0195201Y0150132D01*
X0195167Y0150282D01*
X0195137Y0150433D01*
X0195112Y0150584D01*
X0195090Y0150735D01*
X0195072Y0150888D01*
X0195058Y0151040D01*
X0195048Y0151193D01*
X0195042Y0151347D01*
X0195040Y0151500D01*
M02*
