%
M48
M72
T01C0.01300
T02C0.01378
T03C0.03346
T04C0.03543
T05C0.04000
T06C0.11811
%
T01
X20946Y26500
X28446Y14000
X40946Y14000
X53446Y14000
X65946Y14000
X40946Y26500
X53446Y39000
X65946Y39000
X74696Y42750
X78446Y51500
X78446Y64000
X78446Y76500
X78446Y89000
X65946Y89000
X65946Y76500
X65946Y64000
X65946Y51500
X53446Y51500
X53446Y64000
X53446Y76500
X53446Y89000
X40946Y89000
X40946Y76500
X40946Y64000
X40946Y51500
X93446Y92750
X103446Y89000
X115946Y89000
X115946Y76500
X103446Y76500
X103446Y64000
X103446Y51500
X98446Y42750
X103446Y39000
X115946Y39000
X115946Y51500
X128446Y51500
X140946Y51500
X140946Y39000
X128446Y39000
X128446Y64000
X140946Y64000
X140946Y76500
X140946Y89000
X140946Y101500
X128446Y101500
X128446Y89000
X128446Y76500
X153446Y76500
X165946Y76500
X165946Y64000
X165946Y51500
X165946Y39000
X153446Y39000
X153446Y51500
X153446Y64000
X153446Y89000
X165946Y89000
X165946Y101500
X153446Y101500
X165946Y126500
X178446Y126500
X190946Y126500
X203446Y126500
X203446Y114000
X203446Y101500
X203446Y89000
X203446Y76500
X203446Y64000
X190946Y64000
X190946Y76500
X190946Y89000
X190946Y101500
X178446Y101500
X178446Y89000
X178446Y76500
X178446Y64000
X178446Y51500
X178446Y14000
X165946Y14000
X140946Y126500
X128446Y126500
X128446Y139000
X140946Y139000
X128446Y151500
X115946Y151500
X115946Y139000
X103446Y139000
X103446Y151500
X103446Y126500
X95946Y126500
X78446Y126500
X78446Y139000
X78446Y151500
X65946Y151500
X65946Y139000
X53446Y139000
X53446Y151500
X40946Y151500
X40946Y139000
X40946Y126500
X53446Y126500
X65946Y126500
X28446Y139000
X115946Y126500
X153446Y151500
X165946Y151500
X165946Y139000
X178446Y139000
X190946Y139000
X190946Y151500
X178446Y151500
X203446Y139000
T02
X103446Y22750
X113446Y20250
X143446Y20250
T03
X25946Y65191
X25946Y73065
X25946Y80939
X25946Y88813
X25946Y96687
X25946Y104561
X25946Y112435
X25946Y120309
T04
X93761Y156500
X133131Y156500
T05
X128446Y114148
X138446Y114148
X148446Y114148
X158446Y114148
X168446Y114148
X178446Y114148
X188446Y114148
X118446Y114148
X108446Y114148
X98446Y114148
X88446Y114148
X78446Y114148
X68446Y114148
X58446Y114148
X48446Y114148
X23446Y132750
X48446Y26352
X58446Y26352
X68446Y26352
X78446Y26352
X88446Y26352
X88446Y15250
X78446Y15250
X98446Y15250
X108446Y15250
X108446Y26352
X98446Y26352
X118446Y26352
X128446Y26352
X138446Y26352
X138446Y15250
X128446Y15250
X118446Y15250
X148446Y15250
X148446Y26352
X158446Y26352
X168446Y26352
X178446Y26352
X188446Y26352
X202196Y20250
T06
X200946Y151500
X27196Y150250
M30
